<svg width="45" height="36" viewBox="0 0 45 36" fill="none" xmlns="http://www.w3.org/2000/svg">
  <path
    d="M44.4101 6.48999V28.9C44.4101 29.28 44.3801 29.66 44.3101 30.02C44.2801 30.19 44.2401 30.35 44.1901 30.51C44.0301 31.14 43.7701 31.72 43.4301 32.25C43.4101 32.29 43.3801 32.34 43.3501 32.38C42.9701 32.95 42.5101 33.44 41.9701 33.85C41.9301 33.88 41.8901 33.91 41.8401 33.94C41.3001 34.35 40.6901 34.67 40.0201 34.87C39.8301 34.93 39.6401 34.98 39.4501 35.02C39.0301 35.1 38.6001 35.15 38.1701 35.15H6.33009C5.89009 35.15 5.46009 35.1 5.05009 35.01C4.85009 34.98 4.67009 34.93 4.48009 34.87C3.82009 34.67 3.21009 34.35 2.67009 33.94C2.62009 33.92 2.58009 33.88 2.54009 33.85C2.00009 33.45 1.53009 32.95 1.15009 32.38C1.12009 32.34 1.09009 32.29 1.07009 32.25C0.730087 31.72 0.470087 31.14 0.310087 30.51C0.260087 30.35 0.220088 30.18 0.190088 30.01C0.120088 29.65 0.0900879 29.28 0.0900879 28.9V6.48999C0.0900879 6.10999 0.120088 5.73 0.190088 5.37C0.220088 5.2 0.260087 5.02999 0.310087 4.87C0.470087 4.25 0.730087 3.67001 1.07009 3.14001C1.09009 3.10001 1.12009 3.05001 1.15009 3.01001C1.53009 2.45001 2.00009 1.95001 2.54009 1.54001C2.58009 1.51001 2.62009 1.47 2.67009 1.44C3.22009 1.03 3.83009 0.719989 4.49009 0.519989C4.68009 0.459989 4.87009 0.409995 5.07009 0.369995C5.48009 0.289995 5.91009 0.23999 6.34009 0.23999H38.1801C38.6101 0.23999 39.0401 0.289995 39.4501 0.369995C39.6501 0.409995 39.8401 0.459989 40.0301 0.519989C40.7001 0.719989 41.3101 1.04 41.8501 1.44C41.9001 1.48 41.9401 1.51001 41.9801 1.54001C42.5201 1.95001 42.9901 2.45001 43.3601 3.01001C43.3901 3.05001 43.4201 3.10001 43.4401 3.14001C43.7801 3.67001 44.0401 4.25 44.2001 4.87C44.2501 5.02999 44.2901 5.18999 44.3201 5.35999C44.3901 5.71999 44.4201 6.09999 44.4201 6.48999H44.4101Z"
    fill="#3F9CFB" />
  <path
    d="M44.3102 30.0201C44.2802 30.1901 44.2402 30.3501 44.1902 30.5101C44.0302 31.1401 43.7702 31.7201 43.4302 32.2501C43.4102 32.2901 43.3802 32.3401 43.3502 32.3801C42.9702 32.9501 42.5102 33.4401 41.9702 33.8501C41.9302 33.8801 41.8902 33.9101 41.8402 33.9401C41.3002 34.3501 40.6902 34.6701 40.0202 34.8701C39.8302 34.9301 39.6402 34.9801 39.4502 35.0201L25.7202 24.6401H25.7102L23.4002 22.9001L22.2502 22.0301L21.0902 21.1501L20.3402 20.5901L18.7802 19.4101L18.4102 19.1301L18.0302 18.8401L16.5102 17.6901H16.5002L14.9702 16.5301L11.9102 14.2201L0.180176 5.37012C0.210176 5.20012 0.250175 5.03012 0.300175 4.87012C0.460175 4.25012 0.720175 3.67014 1.06017 3.14014C1.08017 3.10014 1.11017 3.05013 1.14017 3.01013C1.52017 2.45013 1.99018 1.95013 2.53018 1.54013C2.57018 1.51013 2.61018 1.47012 2.66018 1.44012C3.21018 1.03012 3.82017 0.720111 4.48018 0.520111C4.67018 0.460111 4.86018 0.410117 5.06018 0.370117L18.7802 10.7301L21.0902 12.4801L22.2502 13.3601L23.4002 14.2201L24.1702 14.8001L25.7102 15.9601H25.7202L26.0802 16.2401L26.4702 16.5301L27.9902 17.6901H28.0002L29.5202 18.8401L32.5802 21.1501L44.3102 30.0201Z"
    fill="#FFEAD3" />
  <path
    d="M44.3102 5.36011L32.5902 14.2201L29.5302 16.5301L28.0002 17.6901H27.9902L26.4702 18.8401L26.0802 19.1301L25.7202 19.4101H25.7102L24.1602 20.5901L23.4002 21.1501L22.2502 22.0301L21.0902 22.9001L18.7802 24.6401L5.05018 35.0101C4.85018 34.9801 4.67018 34.9301 4.48018 34.8701C3.82018 34.6701 3.21019 34.3501 2.67019 33.9401C2.62019 33.9201 2.58019 33.8801 2.54019 33.8501C2.00019 33.4501 1.53018 32.9501 1.15018 32.3801C1.12018 32.3401 1.09018 32.2901 1.07018 32.2501C0.730185 31.7201 0.470184 31.1401 0.310184 30.5101C0.260184 30.3501 0.220186 30.1801 0.190186 30.0101L11.9302 21.1501L14.9902 18.8401L16.5102 17.6901H16.5202L18.0402 16.5301L18.4202 16.2401L18.7902 15.9701L20.3402 14.8001L21.1002 14.2201L22.2602 13.3601L23.4102 12.4801L25.7202 10.7401H25.7302L39.4502 0.370117C39.6502 0.410117 39.8402 0.460111 40.0302 0.520111C40.7002 0.720111 41.3102 1.04012 41.8502 1.44012C41.9002 1.48012 41.9402 1.51013 41.9802 1.54013C42.5202 1.95013 42.9902 2.45013 43.3602 3.01013C43.3902 3.05013 43.4202 3.10014 43.4402 3.14014C43.7802 3.67014 44.0402 4.25012 44.2002 4.87012C44.2502 5.03012 44.2902 5.19011 44.3202 5.36011H44.3102Z"
    fill="#FFEAD3" />
  <path
    d="M43.4301 32.2499C43.4301 32.2499 43.3801 32.3399 43.3501 32.3799C42.9701 32.9499 42.5101 33.4399 41.9701 33.8499C41.9301 33.8799 41.8901 33.9099 41.8401 33.9399L25.7201 21.7699H25.7101L24.9101 21.1499L24.1601 20.5899L23.4001 20.0199L22.2501 19.14L21.8501 18.8399L21.0901 18.2799L20.3301 17.7H20.3201L18.8001 16.5299H18.7801L18.4101 16.2399L15.7301 14.2199L1.06006 3.13995C1.06006 3.13995 1.11006 3.04995 1.14006 3.00995C1.52006 2.44995 1.99006 1.94995 2.53006 1.53995C2.57006 1.50995 2.61006 1.46994 2.66006 1.43994L18.7801 13.6199L19.5801 14.2199L20.3301 14.7999L21.0901 15.3699L22.2501 16.2399L22.6301 16.5299L23.4001 17.1099L24.1701 17.7L25.6901 18.8399H25.7101L25.7201 18.8499L26.0801 19.1299L28.7501 21.1499L43.4301 32.2499Z"
    fill="#EE655C" />
  <path
    d="M43.4301 3.13995L28.7601 14.2199L26.0801 16.2399L25.7201 16.5299H25.7001L24.1701 17.7L23.4001 18.2799L22.6501 18.8399L22.2501 19.14L21.0901 20.0199L20.3401 20.5899L19.5901 21.1499L18.7801 21.7699L2.66006 33.9399C2.61006 33.9199 2.57006 33.8799 2.53006 33.8499C1.99006 33.4499 1.52006 32.9499 1.14006 32.3799C1.11006 32.3399 1.08006 32.2899 1.06006 32.2499L15.7501 21.1499L18.4101 19.1299L18.7801 18.8499H18.8101L20.3201 17.7H20.3301L21.0901 17.1099L21.8701 16.5299L22.2501 16.2399L23.4001 15.3699L24.1701 14.7999L24.9201 14.2199L25.7101 13.6299H25.7201L41.8401 1.43994C41.8901 1.47994 41.9301 1.50995 41.9701 1.53995C42.5101 1.94995 42.9801 2.44995 43.3501 3.00995C43.3801 3.04995 43.4101 3.09995 43.4301 3.13995Z"
    fill="#EE655C" />
  <path d="M44.4101 14.22H0.0800781V21.15H44.4101V14.22Z" fill="#FFEAD3" />
  <path d="M25.71 0.23999H18.78V35.15H25.71V0.23999Z" fill="#FFEAD3" />
  <path d="M23.4001 0.23999H21.0901V35.15H23.4001V0.23999Z" fill="#EE655C" />
  <path d="M44.4101 16.53H0.0800781V18.84H44.4101V16.53Z" fill="#EE655C" />
</svg>