<svg xmlns="http://www.w3.org/2000/svg" width="56" height="44" viewBox="0 0 56 44" fill="none">
<path d="M56 36.1204V29.325H0V36.1204C0 40.4699 3.53711 44 7.89533 44H48.1173C52.4755 44 56 40.4699 56 36.1204Z" fill="#54CF85"/>
<path d="M56 14.6624H0V29.3374H56V14.6624Z" fill="#FFEAD3"/>
<path d="M0 7.87968V14.6751H56V7.87968C56 3.53012 52.4755 3.35458e-05 48.1173 3.35458e-05H7.89533C3.53711 -0.0125739 0 3.53012 0 7.87968Z" fill="#FCAA4C"/>
<path d="M28.0066 15.2803C24.2926 15.2803 21.2734 18.2935 21.2734 21.9874C21.2734 25.694 24.2926 28.7072 28.0066 28.7072C31.7205 28.7072 34.7397 25.694 34.7397 21.9874C34.727 18.2935 31.7079 15.2803 28.0066 15.2803ZM33.1101 24.2694C33.1101 24.3324 33.1227 24.3828 33.148 24.4081C33.1606 24.4711 33.1985 24.5215 33.249 24.5594C33.2111 24.635 33.1733 24.7106 33.1354 24.7737L30.4573 23.0465L30.4194 23.0212H30.4067L29.333 22.5296L30.4825 22.9582L33.6028 23.6264C33.5775 23.7147 33.5522 23.7903 33.527 23.8659H33.5144C33.287 23.8785 33.1101 24.0551 33.1101 24.2694ZM32.3269 25.6184C32.3269 25.694 32.3521 25.7697 32.3774 25.8327C32.3269 25.8957 32.2763 25.9462 32.2132 26.0092L30.0657 23.639L29.1561 22.8826L30.1415 23.576L32.9711 25.0258C32.9206 25.1015 32.8827 25.1771 32.8322 25.2528C32.5795 25.1771 32.3269 25.3662 32.3269 25.6184ZM25.7327 27.0934C25.619 27.0934 25.5053 27.1439 25.4295 27.2195C25.3537 27.1817 25.2779 27.1439 25.2148 27.1061L26.9581 24.4207L27.4507 23.3616L27.0339 24.4711L26.3643 27.5851C26.2885 27.5599 26.2127 27.5347 26.1243 27.5095C26.1243 27.4969 26.1243 27.4969 26.1243 27.4843C26.1243 27.2826 25.9348 27.0934 25.7327 27.0934ZM24.381 26.3118C24.3052 26.3118 24.2294 26.337 24.1663 26.3748L24.1537 26.3622C24.0905 26.3118 24.0399 26.2614 23.9768 26.2109L26.3517 24.0677L27.0212 23.2482L26.4022 24.1307L24.9495 26.9548L24.9242 26.9422C24.8611 26.9043 24.8105 26.8665 24.7474 26.8287C24.76 26.7909 24.76 26.753 24.76 26.7152C24.7726 26.5009 24.5958 26.3118 24.381 26.3118ZM23.1683 25.2402C23.1178 25.1771 23.0799 25.1015 23.0293 25.0258L25.8843 23.5634L26.8696 22.8826L25.9222 23.6642L23.7873 26.0218C23.7494 25.984 23.6989 25.9336 23.661 25.8831C23.6483 25.8705 23.6357 25.8453 23.6104 25.8327C23.6483 25.7697 23.6736 25.694 23.6736 25.6184C23.6736 25.3536 23.421 25.1771 23.1683 25.2402ZM22.9157 24.282C22.9157 24.0424 22.7135 23.8659 22.4861 23.8785C22.4609 23.8029 22.4356 23.7273 22.4104 23.639L25.5432 22.9708L26.6296 22.5674L25.5558 23.0591L22.8904 24.7863C22.8525 24.7232 22.8146 24.6476 22.7893 24.572C22.8651 24.5089 22.9157 24.3955 22.9157 24.282ZM22.4988 22.7817C22.4988 22.5926 22.3725 22.4413 22.183 22.4035V22.3909C22.183 22.3152 22.1703 22.227 22.1703 22.1513L25.3664 22.3152L26.5791 22.2018L25.3664 22.4035L22.3346 23.3742C22.3219 23.2986 22.2967 23.2104 22.284 23.1347C22.4103 23.0591 22.4988 22.933 22.4988 22.7817ZM22.183 21.6218C22.3725 21.584 22.5114 21.4327 22.5114 21.231C22.5114 21.0671 22.423 20.941 22.284 20.8654L22.2967 20.8275C22.3093 20.7645 22.3219 20.7015 22.3346 20.6384L25.3916 21.6092L26.5665 21.8109L25.3664 21.7101L22.183 21.8614C22.183 21.7731 22.183 21.6975 22.183 21.6218ZM22.7767 19.4281C22.8146 19.3525 22.8525 19.2768 22.8904 19.2012L25.5811 20.9536L26.5665 21.4075L25.5306 21.0293L22.4104 20.3611C22.4356 20.2854 22.4609 20.1972 22.4861 20.1215C22.7135 20.1467 22.903 19.945 22.903 19.7307C22.903 19.6172 22.8525 19.5038 22.7767 19.4281ZM23.6231 18.1674C23.6736 18.1043 23.7241 18.0539 23.7873 17.9909L25.9348 20.3611L26.8065 21.0797L25.8717 20.4115L23.0293 18.9616C23.0672 18.8986 23.1178 18.823 23.1683 18.7473C23.2188 18.7599 23.2693 18.7599 23.2946 18.7599C23.5094 18.7599 23.6989 18.5834 23.6989 18.3565C23.6862 18.3061 23.661 18.2304 23.6231 18.1674ZM24.76 17.1588C24.7979 17.1336 24.8232 17.121 24.8611 17.0957C24.899 17.0705 24.9369 17.0453 24.9748 17.0327L26.4401 19.8694L27.0718 20.7645L26.3643 19.9072L24.002 17.7765C24.0652 17.7261 24.1157 17.6631 24.1789 17.6127C24.2421 17.6505 24.3179 17.6757 24.3937 17.6757C24.6211 17.6757 24.7979 17.4866 24.7979 17.2722C24.7853 17.2344 24.7726 17.1966 24.76 17.1588ZM26.1243 16.4906C26.1875 16.4654 26.2633 16.4402 26.3391 16.4276C26.3517 16.4276 26.3643 16.4149 26.3769 16.4149L27.0591 19.529L27.4886 20.6889L26.9581 19.5416L25.2274 16.8814C25.2905 16.8436 25.3664 16.8058 25.4422 16.768C25.518 16.8562 25.619 16.9066 25.7453 16.9066C25.9601 16.9066 26.1369 16.7301 26.1369 16.5158C26.1243 16.5158 26.1243 16.5032 26.1243 16.4906ZM32.7311 18.7725C32.769 18.7725 32.8195 18.7725 32.8574 18.7599C32.908 18.823 32.9459 18.8986 32.9838 18.9616L30.1415 20.4241L29.194 21.1049L30.1036 20.3485L32.2385 17.9909C32.289 18.0539 32.3522 18.1043 32.4027 18.1674C32.3648 18.2304 32.3395 18.3061 32.3395 18.3817C32.3395 18.596 32.5164 18.7725 32.7311 18.7725ZM33.1227 19.7559C33.1227 19.9828 33.3122 20.1594 33.5396 20.1467C33.5649 20.2224 33.5901 20.2854 33.6028 20.3611L30.4699 21.0167L29.434 21.3949L30.4446 20.9284L33.1227 19.1886C33.148 19.239 33.1733 19.302 33.2111 19.3525C33.2238 19.3777 33.2364 19.4029 33.249 19.4281C33.1733 19.529 33.1227 19.6424 33.1227 19.7559ZM31.291 26.8161C31.2152 26.8665 31.1268 26.9169 31.0384 26.9674L29.573 24.1307L28.8782 23.1473L29.6614 24.0803L32.0237 26.2109C31.9605 26.274 31.8974 26.3244 31.8342 26.3748C31.7837 26.3496 31.7331 26.337 31.67 26.337C31.4552 26.337 31.2657 26.5135 31.2657 26.7404C31.291 26.7657 31.291 26.7909 31.291 26.8161ZM29.0677 24.4333L30.7983 27.1061C30.7225 27.1439 30.6594 27.1817 30.5836 27.2195C30.5078 27.1439 30.4067 27.0934 30.293 27.0934C30.0783 27.0934 29.8888 27.2699 29.8888 27.4969C29.8888 27.5095 29.8888 27.5095 29.8888 27.5221C29.813 27.5473 29.7372 27.5725 29.6488 27.5977L28.9666 24.4585L28.5497 23.349L29.0677 24.4333ZM28.7392 22.1765V22.0757H28.0318L28.5245 22.2648H28.0697L28.5624 22.4917L28.474 22.58L28.2592 22.7061V22.7187L28.0697 22.7439H27.8802L27.7413 22.7061L27.5518 22.5926L27.4002 22.4413L27.337 22.3278L27.2739 22.0883V21.9244L27.3244 21.7227L27.4255 21.5336L27.5771 21.3823L27.7034 21.3066L27.9181 21.2436H28.095L28.2718 21.294L28.474 21.4075L28.5876 21.521L28.7013 21.7227L28.7392 21.8614V22.1135H28.7519L28.7392 22.1765ZM30.293 16.9066C30.4067 16.9066 30.5078 16.8562 30.5836 16.7806C30.6594 16.8184 30.7225 16.8562 30.7983 16.894L29.055 19.5668L28.5497 20.6637L28.9666 19.5164L29.6362 16.4149L29.6614 16.4276C29.7372 16.4528 29.8004 16.478 29.8762 16.4906V16.5032C29.8888 16.7301 30.0657 16.9066 30.293 16.9066ZM31.6321 17.6883C31.7205 17.6883 31.7963 17.6631 31.8469 17.6253C31.91 17.6757 31.9732 17.7387 32.0237 17.7892L29.6488 19.9324L28.9161 20.8149L29.5856 19.8694L31.0384 17.0453C31.1015 17.0831 31.1773 17.121 31.2405 17.1714C31.2278 17.2092 31.2152 17.2596 31.2152 17.2975C31.2279 17.5118 31.4047 17.6883 31.6321 17.6883ZM28.7898 16.5158C28.9414 16.5158 29.0803 16.4275 29.1435 16.2889C29.2193 16.3015 29.3077 16.3267 29.3835 16.3393L28.3982 19.3903L28.2087 20.4871L28.3097 19.3525L28.1455 16.1754C28.234 16.1754 28.3097 16.1754 28.3982 16.188C28.4487 16.3771 28.6003 16.5158 28.7898 16.5158ZM27.7034 19.3777L27.8171 20.5628L27.615 19.3777L26.6423 16.3393C26.7181 16.3141 26.7939 16.3015 26.8823 16.2889C26.9454 16.4149 27.0844 16.5032 27.236 16.5032C27.4255 16.5032 27.5771 16.3771 27.6276 16.188C27.7034 16.188 27.7918 16.1754 27.8802 16.1754L27.7034 19.3777ZM27.615 24.6098L27.8171 23.4247L27.7034 24.6476L27.8676 27.8121C27.7792 27.8121 27.6907 27.7995 27.6023 27.7995C27.5644 27.623 27.4002 27.4969 27.2107 27.4969C27.0591 27.4969 26.9328 27.5851 26.857 27.7112C26.7812 27.6986 26.7054 27.6734 26.6296 27.6608L27.615 24.6098ZM28.3097 24.635L28.196 23.4499L28.3982 24.635L29.3709 27.6608C29.2951 27.686 29.2067 27.6986 29.1309 27.7112C29.0677 27.5851 28.9287 27.4969 28.7772 27.4969C28.5877 27.4969 28.4234 27.623 28.3855 27.8121C28.2971 27.8247 28.2213 27.8247 28.1329 27.8247L28.3097 24.635ZM29.4467 22.1892L30.6594 22.3026L33.8428 22.1387C33.8428 22.227 33.8428 22.3152 33.8302 22.3909C33.6533 22.4287 33.5144 22.5926 33.5144 22.7817C33.5144 22.933 33.6028 23.0717 33.7291 23.1347C33.7165 23.2104 33.6912 23.2986 33.6785 23.3742L30.6341 22.3909L29.4467 22.1892ZM29.4719 21.8109L30.6467 21.6092L33.6785 20.6384C33.6912 20.7141 33.7165 20.7897 33.7291 20.8654C33.6028 20.9284 33.5144 21.0671 33.5144 21.2184C33.5144 21.4075 33.6407 21.5588 33.8302 21.5966C33.8302 21.6722 33.8428 21.7605 33.8428 21.8487L30.6467 21.6975L29.4719 21.8109Z" fill="#16007E"/>
<path d="M28.0314 19.7053C26.7429 19.7053 25.707 20.7265 25.707 21.9747C25.707 23.2606 26.7555 24.2944 28.0314 24.2944C29.2947 24.2944 30.3179 23.248 30.3179 21.9747C30.3179 20.7265 29.282 19.7053 28.0314 19.7053Z" fill="#16007E"/>
</svg>